<svg width="38" height="46" viewBox="0 0 38 46" fill="none" xmlns="http://www.w3.org/2000/svg">
<path d="M3.36632 43.5682C3.36632 43.1368 3.71082 42.2347 4.3998 40.8619C5.08878 39.4891 5.53727 38.7505 5.74527 38.6459C6.16126 38.4628 6.75275 38.7831 7.51973 39.6068C8.29971 40.4435 8.7157 41.0972 8.7677 41.5679C8.7677 42.1824 8.44271 43.0714 7.79273 44.235C7.14274 45.4116 6.67475 46 6.38876 46C6.27176 46 5.88827 45.7712 5.23828 45.3136C4.5883 44.8691 4.10081 44.5161 3.77581 44.2546C3.50282 44.0193 3.36632 43.7905 3.36632 43.5682Z" fill="#E08900"/>
<path d="M36.6002 19.7768C36.5482 21.2019 36.5092 22.4831 36.4832 23.6205C36.4702 24.7449 36.4182 25.6993 36.3272 26.4837C36.1712 28.1703 35.8463 29.6672 35.3523 30.9746C34.8713 32.269 34.4878 33.1318 34.2018 33.5633C33.9288 33.9947 33.7013 34.3085 33.5193 34.5046C33.3113 34.7007 33.1488 34.7661 33.0318 34.7007C32.9278 34.6353 32.8888 34.5242 32.9148 34.3673C32.9148 34.3281 33.0318 33.7332 33.2658 32.5827C33.4998 31.4322 33.6428 30.3209 33.6948 29.2489C33.7598 28.1637 33.7728 26.6406 33.7338 24.6795C33.6948 22.7054 33.7403 21.1953 33.8703 20.1494C33.9483 19.548 34.0783 18.9205 34.2603 18.2668C34.4423 17.6131 34.6503 16.979 34.8843 16.3645C35.1313 15.737 35.3848 15.1421 35.6448 14.5799C35.9048 14.0177 36.1453 13.5209 36.3662 13.0895C36.5482 12.8149 36.7042 12.7103 36.8342 12.7757C36.9642 12.828 37.0227 12.9326 37.0097 13.0895C36.9837 13.181 36.9512 13.3836 36.9122 13.6974C36.8862 13.9981 36.8537 14.3642 36.8147 14.7956C36.7887 15.214 36.7627 15.6651 36.7367 16.1488C36.7107 16.6325 36.6847 17.1097 36.6587 17.5804C36.6457 18.038 36.6327 18.4629 36.6197 18.8551C36.6067 19.2473 36.6002 19.5546 36.6002 19.7768Z" fill="#E08900"/>
<path fill-rule="evenodd" clip-rule="evenodd" d="M0.525879 27.3998C0.551878 25.8701 0.673229 23.5227 0.972222 20.7902C1.27122 18.0447 1.72621 15.0181 2.33719 11.7103C2.64919 10.7429 3.27967 9.04326 4.22865 6.61151C4.33265 6.37618 4.43665 6.27813 4.54064 6.31735C4.64464 6.35657 4.69664 6.45462 4.69664 6.61151C4.64464 7.81431 4.40415 10.1022 3.97516 13.4753C3.54616 16.8484 3.27967 19.1625 3.17567 20.4176C3.08468 21.6727 3.0735 22.2324 3.0735 22.35C3.0735 24.3111 3.50932 25.6907 4.4583 26.5797C5.18628 27.2204 6.02476 27.5407 6.97374 27.5407C8.29971 27.5407 9.39169 26.9523 10.2497 25.7757C10.8997 24.9128 11.4521 24.2983 11.9071 23.9323C12.3621 23.5531 12.8042 23.3525 13.2202 23.3525C13.4282 23.3395 13.6557 23.3525 13.9027 23.3918C14.1627 23.431 14.4357 23.4898 14.7217 23.5682C15.0077 23.6467 15.2742 23.6467 15.5212 23.5682C15.7812 23.4898 15.9112 23.3591 15.9112 23.176C15.7162 22.9668 15.6187 22.8296 15.6187 22.7642C15.5797 22.5289 15.5797 22.3262 15.6187 22.1563C15.7097 21.8163 15.9047 21.313 16.2037 20.6462C16.4117 20.1233 16.7887 19.3977 17.3346 18.4694C17.9196 17.5542 18.3681 16.9398 18.6801 16.626C19.4081 15.737 20.0841 15.2924 20.7081 15.2924C21.3061 15.2924 21.8001 15.5474 22.19 16.0573C22.606 16.5933 22.814 17.2601 22.814 18.0576C22.814 18.3191 22.7945 18.5675 22.7555 18.8028C22.5605 19.3258 22.4045 19.7637 22.2875 20.1167C22.1835 20.4697 22.112 20.7051 22.073 20.8227C22.073 20.8619 22.0925 20.96 22.1315 21.1169C22.5865 21.1169 23.4059 20.9036 24.062 20.4501C24.5508 20.1123 24.777 19.7703 25.115 19.3519C25.427 18.9597 25.6966 18.4288 26.0476 17.7097C26.3336 17.0168 26.3857 16.7326 26.5025 16.072C26.6555 15.2075 26.6555 14.7034 26.6554 13.7966V13.7628L26.7724 9.74256V8.17369C26.7724 7.25851 26.8699 6.43485 27.0649 5.70271L28.9954 0.290094C29.1904 -0.0759767 29.3659 -0.095588 29.5219 0.231261C29.5609 0.270482 29.5804 0.42737 29.5804 0.701923C29.5804 1.12029 29.5414 1.85897 29.4634 2.91796C29.3854 4.48683 29.3399 5.66349 29.3269 6.44793C29.3009 7.04933 29.2879 7.63765 29.2879 8.21291V9.86022C29.2879 10.9323 29.1709 12.2331 28.9369 13.7628C28.7029 15.2794 28.3064 16.6652 27.7474 17.9203C27.4354 18.5871 27.016 19.5088 26.3661 20.4501C25.6641 21.3914 24.9558 22.1681 24.1369 22.9415C23.6299 23.399 23.1 23.7055 22.697 23.8624C22.281 24.0585 21.891 24.1827 21.5271 24.235C21.1761 24.3004 20.8251 24.3331 20.4741 24.3331C20.3311 24.3331 19.9866 24.3135 19.4406 24.2742C19.1676 24.235 18.9531 24.2154 18.7971 24.2154C18.1731 24.2154 17.5686 24.4115 16.9837 24.8037C16.9057 24.8822 16.4312 25.2613 15.5602 25.9412L14.4097 26.8629C14.1627 27.0328 13.9417 27.1309 13.7467 27.157C13.5647 27.1963 13.3826 27.2269 13.2136 27.2269C12.6286 27.1223 12.1866 27.1223 11.8876 27.2269C10.8737 27.5537 9.83368 28.6585 8.7677 30.5411C7.61073 32.4238 6.32376 33.3651 4.90679 33.3651C3.46382 33.352 2.37184 32.7245 1.63086 31.4825C0.889877 30.2274 0.551878 29.1386 0.525879 27.3998ZM21.0006 18.8616C21.2866 19.2669 21.4296 19.6591 21.4296 20.0383C21.4296 20.2736 21.2086 20.5482 20.7666 20.8619C20.3376 21.1888 19.8761 21.3522 19.3821 21.3522C18.9011 21.3522 18.4656 21.228 18.0756 20.9796C17.6856 20.7443 17.4906 20.5155 17.4906 20.2932C17.6466 19.8487 17.8221 19.5088 18.0171 19.2735C18.4851 18.6198 19.0766 18.2929 19.7916 18.2929C20.2986 18.2929 20.7016 18.4825 21.0006 18.8616Z" fill="#E08900"/>
<path fill-rule="evenodd" clip-rule="evenodd" d="M17.7051 5.13399C17.0162 6.50675 16.6717 7.40886 16.6717 7.8403C16.6717 8.06255 16.8082 8.29135 17.0812 8.52668C17.4061 8.78816 17.8936 9.14769 18.5436 9.60528C19.1936 10.0498 19.5771 10.272 19.6941 10.272C19.9801 10.272 20.4481 9.69026 21.0981 8.52668C21.748 7.35002 22.073 6.45446 22.073 5.83998C22.021 5.36932 21.6051 4.72216 20.8251 3.8985C20.0581 3.06177 19.4666 2.73492 19.0506 2.91796C18.8426 3.02255 18.3941 3.76123 17.7051 5.13399Z" fill="#E08900"/>
</svg>
