<svg width="239" height="44" viewBox="0 0 239 44" fill="none" xmlns="http://www.w3.org/2000/svg">
<path d="M136.444 8.17716C136.444 10.0691 135.835 11.3863 134.617 12.129C133.682 12.6982 132.225 12.9828 130.245 12.9828C128.625 12.9828 127.426 12.7687 126.649 12.3404C125.605 11.7658 125.083 10.744 125.083 9.2749C125.083 8.65149 125.184 8.03351 125.385 7.42094C125.608 6.73791 125.874 6.39639 126.184 6.39639C126.499 6.39639 126.654 6.67286 126.649 7.22579C126.643 7.8763 126.801 8.3425 127.122 8.62439C127.66 9.10143 128.742 9.33995 130.368 9.33995C131.809 9.33995 132.725 9.3264 133.116 9.29929C133.741 9.25592 134.187 9.15293 134.454 8.9903C134.584 8.90899 134.649 8.8358 134.649 8.77075C134.649 8.71654 134.595 8.61626 134.486 8.46989C134.285 8.19884 133.91 7.88172 133.361 7.51852C133.252 7.44805 133.228 7.36131 133.287 7.25832L134.674 4.77011C134.734 4.6617 134.815 4.65356 134.919 4.74572C135.935 5.64559 136.444 6.78941 136.444 8.17716ZM132.252 4.69693C132.322 4.75114 132.32 4.81619 132.244 4.89209L131.273 5.84346C131.202 5.91393 131.132 5.91393 131.061 5.84346L130.148 4.95714L129.25 5.84346C129.18 5.91393 129.109 5.91393 129.038 5.84346L128.068 4.90022C127.992 4.82432 128 4.7403 128.092 4.64814L128.981 3.74556C129.063 3.66425 129.147 3.66425 129.234 3.74556L130.148 4.61562L131.012 3.74556C131.094 3.66425 131.178 3.66425 131.265 3.74556L132.252 4.69693Z" fill="#5A3302"/>
<path d="M141.729 12.7389H140.848C138.809 12.7389 137.789 11.6764 137.789 9.55136C137.789 8.64607 137.757 7.45618 137.692 5.98169C137.621 4.42589 137.547 3.39591 137.471 2.89177C137.433 2.6424 137.477 2.46351 137.602 2.3551L139.975 0.688163C140.138 0.574324 140.25 0.517404 140.309 0.517404C140.38 0.517404 140.415 0.582455 140.415 0.712558V7.8763C140.415 8.66775 140.766 9.06348 141.468 9.06348H141.729V12.7389Z" fill="#5A3302"/>
<path d="M146.442 12.747H145.815C145.032 12.747 144.425 12.3865 143.996 11.6655C143.572 12.3865 142.927 12.747 142.063 12.747H141.264V9.05535H141.777C142.359 9.05535 142.764 8.88188 142.993 8.53494C143.047 8.45363 143.156 8.1365 143.319 7.58357C143.422 7.23663 143.61 7.06316 143.882 7.06316C144.143 7.06316 144.311 7.23663 144.387 7.58357C144.507 8.11482 144.597 8.43194 144.656 8.53494C144.863 8.88188 145.249 9.05535 145.815 9.05535H146.442V12.747ZM145.921 15.1376C145.997 15.1973 145.994 15.265 145.912 15.3409L144.942 16.2923C144.871 16.3627 144.8 16.3627 144.73 16.2923L143.816 15.406L142.919 16.2923C142.849 16.3627 142.778 16.3627 142.707 16.2923L141.737 15.349C141.655 15.2731 141.663 15.1864 141.761 15.0888L142.658 14.1862C142.74 14.1049 142.821 14.1049 142.903 14.1862L143.816 15.0644L144.681 14.1862C144.762 14.1049 144.847 14.1049 144.934 14.1862L145.921 15.1376Z" fill="#5A3302"/>
<path d="M150.023 8.47802C150.023 9.98504 149.808 11.0475 149.379 11.6655C148.878 12.3865 147.954 12.747 146.606 12.747H145.969V9.05535H147.813C148.133 9.05535 148.294 8.96591 148.294 8.78701C148.294 8.69486 148.248 8.58915 148.155 8.46989C147.818 8.03622 147.383 7.58357 146.85 7.11195C146.769 7.03606 146.769 6.93848 146.85 6.81922L148.367 4.62375C148.449 4.50449 148.509 4.44486 148.547 4.44486C148.596 4.44486 148.664 4.49907 148.751 4.60749C149.599 5.6483 150.023 6.93848 150.023 8.47802ZM149.427 15.1214C149.514 15.1864 149.514 15.2623 149.427 15.349L148.326 16.4386C148.25 16.5145 148.171 16.5145 148.09 16.4386L146.981 15.3653C146.888 15.2786 146.896 15.181 147.005 15.0726L148.033 14.048C148.12 13.9613 148.21 13.9613 148.302 14.048L149.427 15.1214Z" fill="#5A3302"/>
<path d="M157.934 8.75449C157.934 11.4053 156.691 12.7307 154.207 12.7307C152.097 12.7307 151.042 11.8173 151.042 9.99046C151.042 9.26948 151.184 8.59728 151.466 7.97388C151.581 7.72451 151.733 7.59983 151.923 7.59983C152.124 7.59983 152.268 7.75433 152.355 8.06332C152.491 8.56747 152.682 8.88459 152.926 9.01469C153.198 9.16106 153.766 9.23424 154.631 9.23424C155.702 9.23424 156.237 9.10414 156.237 8.84393C156.237 8.73552 156.156 8.59728 155.993 8.42923C155.406 7.82209 154.383 7.13635 152.926 6.372L154.207 3.65612C154.283 3.49891 154.356 3.42031 154.427 3.42031C154.47 3.42031 154.541 3.4447 154.639 3.49349C155.232 3.79164 155.83 4.28494 156.433 4.9734C157.434 6.11179 157.934 7.37216 157.934 8.75449Z" fill="#5A3302"/>
<path d="M162.281 8.51055C162.281 8.98759 162.207 9.59202 162.061 10.3238C161.908 11.0936 161.74 11.6764 161.555 12.0721C161.326 12.5491 161.112 12.7877 160.911 12.7877C160.693 12.7877 160.505 12.4976 160.348 11.9176C160.125 11.099 159.652 8.27745 158.929 3.45283L161.392 0.777609C161.544 0.60956 161.647 0.525536 161.702 0.525536C161.745 0.525536 161.783 0.601429 161.816 0.753214C162.055 1.83198 162.202 3.11945 162.256 4.61562C162.273 5.07098 162.281 6.36929 162.281 8.51055Z" fill="#5A3302"/>
<path d="M178.91 12.747H178.404C178.236 12.747 178.04 12.6169 177.817 12.3567C177.534 12.026 177.241 11.7848 176.936 11.633C176.409 11.3728 175.694 11.2427 174.791 11.2427C174.269 11.2427 173.84 11.3023 173.503 11.4216C173.302 11.4921 173.201 11.5625 173.201 11.633C173.201 11.7631 173.508 11.8282 174.123 11.8282C175.118 11.8282 175.8 11.8824 176.17 11.9908C176.915 12.2076 177.287 12.6901 177.287 13.4382C177.287 15.7637 175.395 16.9265 171.611 16.9265C169.452 16.9265 167.984 16.4142 167.207 15.3897C166.761 14.7988 166.538 13.9667 166.538 12.8934C166.538 12.1561 166.69 11.3809 166.995 10.5678C167.315 9.70586 167.647 9.2749 167.99 9.2749C168.419 9.2749 168.634 9.51613 168.634 9.99859C168.634 10.1666 168.607 10.4133 168.552 10.7385C168.503 11.0638 168.479 11.3105 168.479 11.4785C168.479 13.018 169.816 13.7878 172.492 13.7878C173.911 13.7878 175.006 13.7065 175.778 13.5439C176.061 13.4842 176.202 13.4083 176.202 13.3162C176.202 13.2295 176.061 13.1752 175.778 13.1536C175.289 13.1156 174.781 13.0966 174.253 13.0966C173.448 13.0966 172.888 13.0451 172.573 12.9421C172.046 12.7687 171.782 12.4163 171.782 11.8851C171.782 10.7738 172.581 9.98233 174.18 9.51071C175.207 9.20714 176.444 9.05535 177.891 9.05535H178.91V12.747Z" fill="#5A3302"/>
<path d="M186.397 12.747H185.908C185.625 12.747 185.334 12.6033 185.035 12.316C184.763 12.0558 184.581 11.7794 184.488 11.4866C184.086 12.3648 183.458 12.8039 182.604 12.8039C181.713 12.8039 180.987 12.3757 180.427 11.5192C180.052 12.3377 179.552 12.747 178.926 12.747H178.404V9.05535H178.673C179.359 9.05535 179.715 8.84122 179.742 8.41297C179.775 7.84377 179.935 7.34505 180.223 6.9168C180.658 6.26629 181.305 5.94103 182.164 5.94103C182.887 5.94103 183.469 6.20937 183.909 6.74604C184.013 6.87072 184.301 7.37216 184.774 8.25034C185.062 8.78701 185.386 9.05535 185.744 9.05535H186.397V12.747ZM183.763 9.5351C183.763 9.18816 183.667 8.81412 183.477 8.41297C183.249 7.93051 182.982 7.68928 182.678 7.68928C182.515 7.68928 182.379 7.75433 182.27 7.88443C182.161 8.00911 182.107 8.15548 182.107 8.32353C182.107 8.73552 182.197 9.13666 182.376 9.52697C182.604 10.0257 182.914 10.2751 183.306 10.2751C183.61 10.2751 183.763 10.0284 183.763 9.5351Z" fill="#5A3302"/>
<path d="M190.891 12.747H190.442C190.034 12.747 189.637 12.6006 189.251 12.3079C188.947 12.0748 188.71 11.8173 188.542 11.5354C187.971 12.3431 187.291 12.747 186.503 12.747H185.908V9.05535H186.381C187.006 9.05535 187.299 8.63252 187.261 7.78686L187 2.33883C186.995 2.23584 187.022 2.16536 187.082 2.12742L189.569 0.533667C189.651 0.479458 189.703 0.463195 189.724 0.484879C189.735 0.501142 189.741 0.563482 189.741 0.671901V8.02267C189.741 8.28287 189.806 8.51326 189.936 8.71383C190.083 8.94151 190.282 9.05535 190.532 9.05535H190.891V12.747Z" fill="#5A3302"/>
<path d="M197.847 8.71383L197.456 10.2507C197.195 11.2806 197.021 11.801 196.934 11.8119C196.662 11.8498 196.219 11.8715 195.605 11.8769C194.979 11.8824 194.531 11.8607 194.259 11.8119C193.965 12.0667 193.449 12.2916 192.709 12.4868C192.051 12.6603 191.508 12.747 191.078 12.747H190.491V9.05535H191.078C191.377 9.05535 191.589 8.99572 191.714 8.87646C191.334 8.51326 191.143 8.19884 191.143 7.93322C191.143 6.98456 191.502 6.1145 192.22 5.32305C192.959 4.50991 193.799 4.10334 194.74 4.10334C195.409 4.10334 196.012 4.34999 196.551 4.8433C197.007 5.26613 197.331 5.76756 197.521 6.3476C197.559 6.46686 197.578 6.58612 197.578 6.70538C197.578 7.03064 197.486 7.19326 197.301 7.19326C197.083 7.19326 196.735 7.13635 196.257 7.02251C195.779 6.90867 195.414 6.85175 195.164 6.85175C194.669 6.85175 194.183 6.92493 193.704 7.07129C193.128 7.24476 192.84 7.47786 192.84 7.77059C192.84 8.07416 193.152 8.29371 193.778 8.42923C194.158 8.51055 194.577 8.5512 195.034 8.5512C195.751 8.5512 196.6 8.46718 197.578 8.29913C197.801 8.26119 197.913 8.291 197.913 8.38858C197.913 8.43194 197.891 8.54036 197.847 8.71383Z" fill="#5A3302"/>
<path d="M212.837 12.747H212.381C212.092 12.747 211.87 12.6277 211.712 12.3892C211.712 15.3707 210.064 16.8615 206.77 16.8615C205.416 16.8615 204.35 16.604 203.573 16.089C202.643 15.4764 202.178 14.5278 202.178 13.243C202.178 12.6142 202.306 11.8796 202.561 11.0394C202.866 10.042 203.206 9.54323 203.581 9.54323C203.809 9.54323 203.956 9.64352 204.021 9.84409C204.054 9.94709 204.07 10.1422 204.07 10.4296C204.07 10.5705 204.037 10.79 203.972 11.0882C203.907 11.3809 203.874 11.6005 203.874 11.7468C203.874 12.8093 204.954 13.3406 207.112 13.3406C207.754 13.3406 208.36 13.2674 208.931 13.121C209.784 12.9042 210.211 12.5627 210.211 12.0965C210.211 11.7062 209.665 11.0719 208.572 10.1937L209.844 7.7218C209.893 7.62965 209.937 7.58357 209.975 7.58357C210.013 7.58357 210.075 7.62965 210.162 7.7218C211.021 8.61084 211.685 9.05535 212.152 9.05535H212.837V12.747ZM207.707 6.51836C207.784 6.58883 207.781 6.66473 207.699 6.74604L206.606 7.84377C206.53 7.91967 206.452 7.91967 206.37 7.84377L205.261 6.7623C205.174 6.68099 205.182 6.58883 205.285 6.48584L206.313 5.44502C206.4 5.35828 206.49 5.35828 206.582 5.44502L207.707 6.51836Z" fill="#5A3302"/>
<path d="M220.324 12.747H219.835C219.552 12.747 219.261 12.6033 218.962 12.316C218.69 12.0558 218.508 11.7794 218.416 11.4866C218.013 12.3648 217.385 12.8039 216.532 12.8039C215.64 12.8039 214.914 12.3757 214.354 11.5192C213.979 12.3377 213.479 12.747 212.854 12.747H212.332V9.05535H212.601C213.286 9.05535 213.642 8.84122 213.669 8.41297C213.702 7.84377 213.862 7.34505 214.15 6.9168C214.585 6.26629 215.232 5.94103 216.091 5.94103C216.815 5.94103 217.396 6.20937 217.837 6.74604C217.94 6.87072 218.228 7.37216 218.701 8.25034C218.989 8.78701 219.313 9.05535 219.672 9.05535H220.324V12.747ZM217.69 9.5351C217.69 9.18816 217.595 8.81412 217.405 8.41297C217.176 7.93051 216.91 7.68928 216.605 7.68928C216.442 7.68928 216.306 7.75433 216.197 7.88443C216.089 8.00911 216.034 8.15548 216.034 8.32353C216.034 8.73552 216.124 9.13666 216.303 9.52697C216.532 10.0257 216.842 10.2751 217.233 10.2751C217.538 10.2751 217.69 10.0284 217.69 9.5351Z" fill="#5A3302"/>
<path d="M230.47 12.747H228.871C227.403 12.747 226.446 11.9122 226.001 10.2425C225.392 11.0394 224.598 11.6601 223.619 12.1046C222.678 12.5329 221.689 12.747 220.65 12.747H219.835V9.05535H221.246C222.828 9.05535 224.209 8.77346 225.389 8.20969C223.981 7.78686 223.089 7.57544 222.714 7.57544C222.404 7.57544 222.089 7.71909 221.768 8.0064C221.447 8.29371 221.21 8.43737 221.058 8.43737C220.748 8.43737 220.593 8.21511 220.593 7.77059C220.593 7.28271 220.803 6.67015 221.221 5.9329C221.76 4.98424 222.415 4.50991 223.187 4.50991C223.682 4.50991 224.538 4.71862 225.756 5.13603C226.974 5.55344 227.909 5.76214 228.561 5.76214H229.499C229.695 5.76214 229.793 5.8028 229.793 5.88411C229.793 5.9329 229.771 6.02506 229.728 6.16058L228.937 8.64878H227.42C227.67 8.91983 228.184 9.05535 228.961 9.05535H230.47V12.747ZM226.58 15.2433C226.656 15.3138 226.653 15.3897 226.571 15.471L225.47 16.5606C225.394 16.6365 225.315 16.6365 225.234 16.5606L224.125 15.4873C224.032 15.4005 224.04 15.303 224.149 15.1945L225.169 14.1619C225.261 14.0697 225.356 14.0697 225.454 14.1619L226.58 15.2433Z" fill="#5A3302"/>
<path d="M234.042 8.47802C234.042 9.98504 233.827 11.0475 233.398 11.6655C232.897 12.3865 231.973 12.747 230.625 12.747H229.989V9.05535H231.832C232.153 9.05535 232.313 8.96591 232.313 8.78701C232.313 8.69486 232.267 8.58915 232.174 8.46989C231.837 8.03622 231.402 7.58357 230.869 7.11195C230.788 7.03606 230.788 6.93848 230.869 6.81922L232.386 4.62375C232.468 4.50449 232.528 4.44486 232.566 4.44486C232.615 4.44486 232.683 4.49907 232.77 4.60749C233.618 5.6483 234.042 6.93848 234.042 8.47802ZM233.104 1.82656C233.186 1.90245 233.186 1.98105 233.104 2.06237L232.003 3.14384C231.927 3.21973 231.848 3.21973 231.767 3.14384L230.657 2.07863C230.565 1.99189 230.573 1.89432 230.682 1.7859L231.701 0.753214C231.788 0.661059 231.881 0.661059 231.979 0.753214L233.104 1.82656Z" fill="#5A3302"/>
<path d="M238.405 8.51055C238.405 8.98759 238.332 9.59202 238.185 10.3238C238.033 11.0936 237.864 11.6764 237.679 12.0721C237.451 12.5491 237.236 12.7877 237.035 12.7877C236.818 12.7877 236.63 12.4976 236.472 11.9176C236.249 11.099 235.776 8.27745 235.053 3.45283L237.516 0.777609C237.669 0.60956 237.772 0.525536 237.826 0.525536C237.87 0.525536 237.908 0.601429 237.94 0.753214C238.18 1.83198 238.326 3.11945 238.381 4.61562C238.397 5.07098 238.405 6.36929 238.405 8.51055Z" fill="#5A3302"/>
<path d="M13.2368 39.1143H12.7312C12.5626 39.1143 12.3669 38.9842 12.144 38.724C11.8612 38.3934 11.5676 38.1521 11.2632 38.0003C10.7358 37.7401 10.0208 37.61 9.11823 37.61C8.59627 37.61 8.16674 37.6697 7.82964 37.7889C7.62847 37.8594 7.52788 37.9299 7.52788 38.0003C7.52788 38.1304 7.83508 38.1955 8.44947 38.1955C9.44445 38.1955 10.1268 38.2497 10.4965 38.3581C11.2414 38.575 11.6138 39.0574 11.6138 39.8055C11.6138 42.1311 9.72175 43.2939 5.93754 43.2939C3.77902 43.2939 2.31101 42.7816 1.53351 41.757C1.08767 41.1662 0.864746 40.334 0.864746 39.2607C0.864746 38.5235 1.01698 37.7483 1.32146 36.9351C1.64225 36.0732 1.97391 35.6422 2.31645 35.6422C2.74597 35.6422 2.96074 35.8835 2.96074 36.3659C2.96074 36.534 2.93355 36.7806 2.87918 37.1059C2.83025 37.4311 2.80578 37.6778 2.80578 37.8458C2.80578 39.3854 4.1433 40.1552 6.81835 40.1552C8.23742 40.1552 9.33299 40.0738 10.1051 39.9112C10.3878 39.8516 10.5292 39.7757 10.5292 39.6835C10.5292 39.5968 10.3878 39.5426 10.1051 39.5209C9.61572 39.483 9.10736 39.464 8.57996 39.464C7.77527 39.464 7.21525 39.4125 6.8999 39.3095C6.37251 39.136 6.10881 38.7837 6.10881 38.2524C6.10881 37.1411 6.90806 36.3497 8.50656 35.8781C9.53417 35.5745 10.7711 35.4227 12.2174 35.4227H13.2368V39.1143Z" fill="#5A3302"/>
<path d="M21.5637 34.821C21.5637 35.7805 21.4196 36.6587 21.1315 37.4555C20.7291 38.5668 20.1419 39.1225 19.3698 39.1225C18.7174 39.1225 18.1764 38.7647 17.7469 38.0491C17.4315 38.7538 16.9911 39.1062 16.4257 39.1062C15.6373 39.1062 15.1072 38.7457 14.8353 38.0247C14.5037 38.762 14.0198 39.1306 13.3836 39.1306H12.7475V35.4634H13.3673C13.7425 35.4634 14.0089 35.3116 14.1666 35.008C14.2481 34.7424 14.327 34.4767 14.4031 34.2111C14.5444 33.8696 14.7211 33.6988 14.9332 33.6988C15.1887 33.6988 15.3573 33.8506 15.4388 34.1542L15.6753 35.008C15.8276 35.3116 16.1157 35.4634 16.5398 35.4634C16.8552 35.4634 17.0672 35.3089 17.176 34.9999C17.2086 34.8427 17.2711 34.5581 17.3636 34.1461C17.4397 33.8371 17.6191 33.6826 17.9018 33.6826C18.1519 33.6826 18.315 33.8452 18.3912 34.1705L18.6032 35.073C18.7554 35.3983 19.0409 35.5609 19.4596 35.5609C19.9652 35.5609 20.218 35.3793 20.218 35.0161C20.218 34.7939 20.1718 34.5716 20.0794 34.3494C20.0304 34.2247 19.9462 34.0295 19.8266 33.7639L20.8786 32.6092C20.9928 32.4846 21.0771 32.4927 21.1315 32.6336C21.4196 33.3546 21.5637 34.0837 21.5637 34.821Z" fill="#5A3302"/>
<path d="M29.5399 39.1143H28.6672C28.5259 40.9303 28.042 42.2802 27.2155 43.1638C27.0959 43.2939 26.9328 43.3589 26.7262 43.3589H22.9012C22.4499 43.3589 22.2243 43.1746 22.2243 42.806C22.2243 42.6054 22.3222 42.459 22.5179 42.3669C23.2193 42.0362 24.0648 41.5619 25.0543 40.9439C26.3918 40.1091 27.0715 39.5263 27.0932 39.1957C25.9949 39.1957 25.2772 39.1306 24.9401 39.0005C24.2116 38.7186 23.8473 38.0573 23.8473 37.0164C23.8473 36.0732 24.0049 35.1869 24.3203 34.3575C24.7553 33.2137 25.3968 32.6418 26.245 32.6418C27.4303 32.6418 28.2078 33.5687 28.5775 35.4227H29.5399V39.1143ZM26.9872 36.1139C26.9872 35.9404 26.8594 35.7751 26.6039 35.6179C26.3701 35.4715 26.1607 35.3983 25.9759 35.3983C25.4757 35.3983 25.2256 35.5853 25.2256 35.9594C25.2256 36.1654 25.5328 36.2684 26.1472 36.2684C26.7072 36.2684 26.9872 36.2169 26.9872 36.1139Z" fill="#5A3302"/>
<path d="M39.2288 33.4874C39.2288 34.718 38.7503 35.8591 37.7934 36.9107C36.4613 38.3798 34.4849 39.1143 31.8642 39.1143H29.075V35.4227H30.7877C30.7877 32.8152 30.3636 30.6116 29.5154 28.8119L31.6277 26.9823C31.818 26.8197 31.9404 26.7384 31.9947 26.7384C32.06 26.7384 32.1497 26.8631 32.2639 27.1124L33.5035 29.8608C33.596 30.0668 33.6422 30.2051 33.6422 30.2755C33.6422 30.3406 33.5851 30.3731 33.4709 30.3731C33.3458 30.3731 33.1501 30.3325 32.8837 30.2511C32.9163 30.5385 32.9326 30.8312 32.9326 31.1293C32.9326 32.3219 32.6988 33.4929 32.2312 34.6421C34.1995 32.4575 35.8741 31.3651 37.2551 31.3651C37.8586 31.3651 38.3425 31.5711 38.7068 31.9831C39.0548 32.3734 39.2288 32.8749 39.2288 33.4874ZM36.7902 34.7478C36.7902 34.1244 36.4178 33.8127 35.6729 33.8127C34.9443 33.8127 34.0065 34.3765 32.8592 35.504C33.1093 35.5149 33.354 35.5203 33.5932 35.5203C34.5773 35.5203 35.3793 35.4281 35.9991 35.2438C36.5265 35.0866 36.7902 34.9213 36.7902 34.7478Z" fill="#5A3302"/>
<path d="M54.1617 39.1143H53.705C53.4168 39.1143 53.1939 38.9951 53.0362 38.7566C53.0362 41.7381 51.3888 43.2288 48.0939 43.2288C46.7401 43.2288 45.6744 42.9713 44.8969 42.4563C43.9672 41.8438 43.5023 40.8951 43.5023 39.6104C43.5023 38.9815 43.6301 38.247 43.8856 37.4068C44.1901 36.4093 44.5299 35.9106 44.9051 35.9106C45.1334 35.9106 45.2802 36.0109 45.3455 36.2114C45.3781 36.3144 45.3944 36.5096 45.3944 36.7969C45.3944 36.9378 45.3618 37.1574 45.2965 37.4555C45.2313 37.7483 45.1987 37.9678 45.1987 38.1142C45.1987 39.1767 46.2779 39.7079 48.4365 39.7079C49.078 39.7079 49.6843 39.6348 50.2552 39.4884C51.1088 39.2715 51.5356 38.93 51.5356 38.4638C51.5356 38.0735 50.9892 37.4393 49.8963 36.5611L51.1686 34.0891C51.2175 33.997 51.261 33.9509 51.2991 33.9509C51.3371 33.9509 51.3997 33.997 51.4867 34.0891C52.3457 34.9782 53.009 35.4227 53.4766 35.4227H54.1617V39.1143ZM49.0318 32.8857C49.1079 32.9562 49.1052 33.0321 49.0237 33.1134L47.9308 34.2111C47.8547 34.287 47.7759 34.287 47.6943 34.2111L46.5851 33.1296C46.4981 33.0483 46.5063 32.9562 46.6096 32.8532L47.6372 31.8124C47.7242 31.7256 47.8139 31.7256 47.9063 31.8124L49.0318 32.8857Z" fill="#5A3302"/>
<path d="M57.7339 34.8454C57.7339 36.3524 57.5191 37.4149 57.0896 38.0329C56.5894 38.7538 55.6651 39.1143 54.3167 39.1143H53.6805V35.4227H55.5237C55.8445 35.4227 56.0049 35.3333 56.0049 35.1544C56.0049 35.0622 55.9587 34.9565 55.8662 34.8372C55.5291 34.4036 55.0942 33.9509 54.5613 33.4793C54.4798 33.4034 54.4798 33.3058 54.5613 33.1866L56.0783 30.9911C56.1598 30.8718 56.2196 30.8122 56.2577 30.8122C56.3066 30.8122 56.3746 30.8664 56.4616 30.9748C57.3098 32.0156 57.7339 33.3058 57.7339 34.8454ZM58.3455 41.505C58.4216 41.5646 58.4189 41.6324 58.3374 41.7083L57.3669 42.6596C57.2962 42.7301 57.2255 42.7301 57.1548 42.6596L56.2414 41.7733L55.3443 42.6596C55.2736 42.7301 55.2029 42.7301 55.1322 42.6596L54.1617 41.7164C54.0801 41.6405 54.0883 41.5538 54.1862 41.4562L55.0833 40.5536C55.1648 40.4723 55.2464 40.4723 55.3279 40.5536L56.2414 41.4318L57.1059 40.5536C57.1874 40.4723 57.2717 40.4723 57.3587 40.5536L58.3455 41.505Z" fill="#5A3302"/>
<path d="M68.2138 39.1143H67.5043C66.4658 39.1143 65.6149 38.4421 64.9516 37.0978C64.4894 37.9217 64.0599 38.4936 63.663 38.8135C63.1845 39.1984 62.5756 39.3908 61.8361 39.3908C60.1724 39.3908 59.3405 38.4178 59.3405 36.4716C59.3405 36.0597 59.4003 35.6151 59.5199 35.1381C59.6831 34.4822 59.9087 34.1542 60.1969 34.1542C60.4959 34.1542 60.6916 34.3033 60.7841 34.6014C60.9417 35.1002 61.0396 35.3766 61.0777 35.4308C61.2951 35.729 61.6921 35.8781 62.2684 35.8781C62.6544 35.8781 63.0377 35.8211 63.4183 35.7073C63.8859 35.5663 64.1197 35.3983 64.1197 35.2031C64.1197 35.1706 64.1115 35.1354 64.0952 35.0974L62.7414 31.8693L64.552 30.0479C64.6389 29.9611 64.7042 29.9178 64.7477 29.9178C64.7857 29.9178 64.8292 29.9828 64.8782 30.1129L66.4114 34.3168C66.6778 35.0541 67.0748 35.4227 67.6021 35.4227H68.2138V39.1143Z" fill="#5A3302"/>
<path d="M72.2509 29.8608C72.3161 30.0072 72.3487 30.1237 72.3487 30.2105C72.3487 30.3297 72.2699 30.3894 72.1122 30.3894C71.9763 30.3894 71.7561 30.3433 71.4516 30.2511L71.6473 35.2601C71.7017 36.637 71.4407 37.6615 70.8644 38.3337C70.4186 38.8541 69.8477 39.1143 69.1517 39.1143H67.7326V35.4227H68.2057C68.6189 35.4227 68.9071 35.3956 69.0702 35.3414C69.3366 35.2546 69.4698 35.0676 69.4698 34.7803C69.4698 34.3358 69.3556 33.5037 69.1273 32.284C68.8826 30.983 68.6162 29.8175 68.328 28.7875L70.3751 26.9823C70.5599 26.8197 70.6823 26.7384 70.7421 26.7384C70.8073 26.7384 70.897 26.8631 71.0112 27.1124L72.2509 29.8608Z" fill="#5A3302"/>
<path d="M76.6957 34.8779C76.6957 35.3549 76.6223 35.9594 76.4755 36.6912C76.3232 37.461 76.1547 38.0437 75.9698 38.4394C75.7415 38.9165 75.5267 39.155 75.3255 39.155C75.108 39.155 74.9205 38.865 74.7628 38.2849C74.5399 37.4664 74.0668 34.6448 73.3437 29.8202L75.8067 27.145C75.9589 26.9769 76.0622 26.8929 76.1166 26.8929C76.1601 26.8929 76.1982 26.9688 76.2308 27.1206C76.47 28.1993 76.6168 29.4868 76.6712 30.983C76.6875 31.4383 76.6957 32.7366 76.6957 34.8779Z" fill="#5A3302"/>
<path d="M84.8921 39.1225H84.4435C84.2206 39.1225 84.0194 39.0574 83.84 38.9273V39.6429C83.84 40.2392 83.6742 40.906 83.3425 41.6432C83.0543 42.2883 82.739 42.7951 82.3964 43.1638C82.2768 43.2939 82.111 43.3589 81.8989 43.3589H78.074C77.6227 43.3589 77.397 43.1746 77.397 42.806C77.397 42.6054 77.4922 42.459 77.6825 42.3669C78.4002 42.0254 79.2864 41.4941 80.3412 40.7731C81.7114 39.8407 82.3964 39.1767 82.3964 38.781C82.3964 38.4557 81.7848 37.7239 80.5614 36.5855L81.8663 33.9021C81.9479 33.7395 82.0485 33.7205 82.1681 33.8452C82.6846 34.3819 83.0435 34.7288 83.2446 34.886C83.7013 35.2438 84.1526 35.4227 84.5985 35.4227H84.8921V39.1225Z" fill="#5A3302"/>
<path d="M89.5978 39.1143H88.9699C88.1869 39.1143 87.5807 38.7538 87.1512 38.0329C86.7271 38.7538 86.0828 39.1143 85.2183 39.1143H84.419V35.4227H84.9328C85.5146 35.4227 85.9197 35.2492 86.148 34.9023C86.2024 34.821 86.3111 34.5038 86.4743 33.9509C86.5776 33.604 86.7651 33.4305 87.037 33.4305C87.298 33.4305 87.4665 33.604 87.5426 33.9509C87.6623 34.4822 87.752 34.7993 87.8118 34.9023C88.0184 35.2492 88.4044 35.4227 88.9699 35.4227H89.5978V39.1143ZM89.0759 41.505C89.152 41.5646 89.1493 41.6324 89.0677 41.7083L88.0972 42.6596C88.0265 42.7301 87.9559 42.7301 87.8852 42.6596L86.9717 41.7733L86.0746 42.6596C86.0039 42.7301 85.9333 42.7301 85.8626 42.6596L84.8921 41.7164C84.8105 41.6405 84.8187 41.5538 84.9165 41.4562L85.8136 40.5536C85.8952 40.4723 85.9768 40.4723 86.0583 40.5536L86.9717 41.4318L87.8362 40.5536C87.9178 40.4723 88.0021 40.4723 88.0891 40.5536L89.0759 41.505Z" fill="#5A3302"/>
<path d="M100.388 39.1143H99.6619C98.8681 39.1143 98.2455 38.64 97.7942 37.6913C97.1037 38.6129 95.9348 39.0737 94.2873 39.0737C93.7762 39.0737 93.2461 38.9897 92.697 38.8216C92.0717 38.6319 91.6232 38.3825 91.3513 38.0735C90.9109 38.7674 90.3998 39.1143 89.8181 39.1143H89.1167V35.4227H89.7202C90.0682 35.4227 90.3291 35.2601 90.5031 34.9348C90.5412 34.8643 90.6472 34.5581 90.8212 34.016C90.9245 33.6907 91.0659 33.5281 91.2453 33.5281C91.4573 33.5281 91.6503 33.8289 91.8243 34.4307C92.0038 35.027 92.2212 35.3251 92.4768 35.3251C92.5203 35.3251 92.8112 35.0026 93.3494 34.3575C94.0019 33.5769 94.5945 32.9779 95.1274 32.5605C95.9538 31.9154 96.734 31.5928 97.468 31.5928C98.0933 31.5928 98.6044 31.8097 99.0013 32.2433C99.3982 32.6716 99.5966 33.2001 99.5966 33.8289C99.5966 34.3548 99.4906 34.8237 99.2786 35.2357C99.3438 35.3604 99.4879 35.4227 99.7108 35.4227H100.388V39.1143ZM97.4843 34.9917C97.4843 34.3683 97.1119 34.0566 96.367 34.0566C95.6384 34.0566 94.7005 34.6204 93.5533 35.748C93.8034 35.7588 94.0481 35.7642 94.2873 35.7642C95.2714 35.7642 96.0734 35.6721 96.6932 35.4877C97.2206 35.3305 97.4843 35.1652 97.4843 34.9917Z" fill="#5A3302"/>
<path d="M103.976 34.8454C103.976 36.3524 103.761 37.4149 103.332 38.0329C102.832 38.7538 101.907 39.1143 100.559 39.1143H99.9229V35.4227H101.766C102.087 35.4227 102.247 35.3333 102.247 35.1544C102.247 35.0622 102.201 34.9565 102.109 34.8372C101.771 34.4036 101.337 33.9509 100.804 33.4793C100.722 33.4034 100.722 33.3058 100.804 33.1866L102.321 30.9911C102.402 30.8718 102.462 30.8122 102.5 30.8122C102.549 30.8122 102.617 30.8664 102.704 30.9748C103.552 32.0156 103.976 33.3058 103.976 34.8454ZM103.038 28.1939C103.12 28.2698 103.12 28.3484 103.038 28.4297L101.937 29.5112C101.861 29.5871 101.782 29.5871 101.701 29.5112L100.592 28.446C100.499 28.3592 100.507 28.2617 100.616 28.1532L101.636 27.1206C101.723 27.0284 101.815 27.0284 101.913 27.1206L103.038 28.1939Z" fill="#5A3302"/>
<path d="M115.215 39.1143H114.383C113.187 39.1143 112.42 38.4747 112.083 37.1953C111.849 37.7429 111.596 38.0166 111.324 38.0166C110.819 38.0166 110.237 37.8838 109.579 37.6182C108.704 37.2658 108.266 36.8077 108.266 36.244C108.266 35.6314 108.489 35.0107 108.935 34.3819C108.973 34.3277 109.642 33.7368 110.941 32.6092L110.786 31.9099L112.686 29.9991C112.763 29.9232 112.825 29.8852 112.874 29.8852C112.934 29.8852 112.977 29.9557 113.004 30.0966L113.779 34.2843C113.921 35.0432 114.22 35.4227 114.676 35.4227H115.215V39.1143ZM111.74 35.504L111.284 33.8452C110.528 34.409 110.15 34.8047 110.15 35.0324C110.15 35.2872 110.68 35.4444 111.74 35.504Z" fill="#5A3302"/>
<path d="M124.773 34.0566L123.843 36.244C122.962 36.2277 122.264 36.3415 121.747 36.5855C121.394 36.7535 120.907 37.0869 120.287 37.5856C119.668 38.0844 119.176 38.4178 118.811 38.5858C118.039 38.9382 117.18 39.1143 116.234 39.1143H114.742V35.4227H116.609C118.289 35.4227 119.532 35.2709 120.336 34.9673L118.713 34.2924C118.153 34.0593 117.743 33.9428 117.482 33.9428C117.254 33.9428 116.965 34.0566 116.617 34.2843C116.275 34.512 116.068 34.6258 115.998 34.6258C115.688 34.6258 115.533 34.4469 115.533 34.0891C115.533 33.6934 115.794 33.1351 116.316 32.4141C116.968 31.5142 117.686 31.0643 118.469 31.0643C119.018 31.0643 119.703 31.3218 120.524 31.8368C121.579 32.4981 122.326 32.9074 122.767 33.0646C123.136 33.1947 123.751 33.3546 124.61 33.5443C124.778 33.5823 124.863 33.6501 124.863 33.7476C124.863 33.8127 124.833 33.9157 124.773 34.0566ZM121.486 41.6107C121.562 41.6811 121.56 41.757 121.478 41.8384L120.377 42.928C120.301 43.0038 120.222 43.0038 120.141 42.928L119.031 41.8546C118.939 41.7679 118.947 41.6703 119.056 41.5619L120.075 40.5292C120.168 40.437 120.263 40.437 120.361 40.5292L121.486 41.6107Z" fill="#5A3302"/>
<path d="M129.218 34.8779C129.218 35.3549 129.144 35.9594 128.998 36.6912C128.845 37.461 128.677 38.0437 128.492 38.4394C128.264 38.9165 128.049 39.155 127.848 39.155C127.63 39.155 127.443 38.865 127.285 38.2849C127.062 37.4664 126.589 34.6448 125.866 29.8202L128.329 27.145C128.481 26.9769 128.584 26.8929 128.639 26.8929C128.682 26.8929 128.72 26.9688 128.753 27.1206C128.992 28.1993 129.139 29.4868 129.193 30.983C129.21 31.4383 129.218 32.7366 129.218 34.8779Z" fill="#5A3302"/>
<path d="M137.194 39.1143H136.321C136.18 40.9303 135.696 42.2802 134.87 43.1638C134.75 43.2939 134.587 43.3589 134.38 43.3589H130.555C130.104 43.3589 129.878 43.1746 129.878 42.806C129.878 42.6054 129.976 42.459 130.172 42.3669C130.873 42.0362 131.719 41.5619 132.708 40.9439C134.046 40.1091 134.726 39.5263 134.747 39.1957C133.649 39.1957 132.931 39.1306 132.594 39.0005C131.866 38.7186 131.501 38.0573 131.501 37.0164C131.501 36.0732 131.659 35.1869 131.974 34.3575C132.409 33.2137 133.051 32.6418 133.899 32.6418C135.084 32.6418 135.862 33.5687 136.232 35.4227H137.194V39.1143ZM134.641 36.1139C134.641 35.9404 134.514 35.7751 134.258 35.6179C134.024 35.4715 133.815 35.3983 133.63 35.3983C133.13 35.3983 132.88 35.5853 132.88 35.9594C132.88 36.1654 133.187 36.2684 133.801 36.2684C134.361 36.2684 134.641 36.2169 134.641 36.1139Z" fill="#5A3302"/>
<path d="M146.761 34.0566L145.831 36.244C144.95 36.2277 144.251 36.3415 143.735 36.5855C143.381 36.7535 142.895 37.0869 142.275 37.5856C141.655 38.0844 141.163 38.4178 140.799 38.5858C140.027 38.9382 139.168 39.1143 138.222 39.1143H136.729V35.4227H138.597C140.277 35.4227 141.519 35.2709 142.324 34.9673L140.701 34.2924C140.141 34.0593 139.73 33.9428 139.469 33.9428C139.241 33.9428 138.953 34.0566 138.605 34.2843C138.262 34.512 138.056 34.6258 137.985 34.6258C137.675 34.6258 137.52 34.4469 137.52 34.0891C137.52 33.6934 137.781 33.1351 138.303 32.4141C138.956 31.5142 139.673 31.0643 140.456 31.0643C141.005 31.0643 141.69 31.3218 142.511 31.8368C143.566 32.4981 144.314 32.9074 144.754 33.0646C145.124 33.1947 145.738 33.3546 146.597 33.5443C146.766 33.5823 146.85 33.6501 146.85 33.7476C146.85 33.8127 146.82 33.9157 146.761 34.0566ZM142.936 28.2427C143.012 28.3132 143.009 28.3891 142.927 28.4704L141.835 29.5681C141.758 29.644 141.68 29.644 141.598 29.5681L140.489 28.4866C140.407 28.4053 140.415 28.3132 140.513 28.2102L141.533 27.1693C141.62 27.0772 141.712 27.0772 141.81 27.1693L142.936 28.2427Z" fill="#5A3302"/>
<path d="M163.496 39.1143H162.99C162.822 39.1143 162.626 38.9842 162.403 38.724C162.12 38.3934 161.827 38.1521 161.522 38.0003C160.995 37.7401 160.28 37.61 159.377 37.61C158.855 37.61 158.426 37.6697 158.089 37.7889C157.888 37.8594 157.787 37.9299 157.787 38.0003C157.787 38.1304 158.094 38.1955 158.709 38.1955C159.704 38.1955 160.386 38.2497 160.756 38.3581C161.5 38.575 161.873 39.0574 161.873 39.8055C161.873 42.1311 159.981 43.2939 156.197 43.2939C154.038 43.2939 152.57 42.7816 151.793 41.757C151.347 41.1662 151.124 40.334 151.124 39.2607C151.124 38.5235 151.276 37.7483 151.581 36.9351C151.901 36.0732 152.233 35.6422 152.576 35.6422C153.005 35.6422 153.22 35.8835 153.22 36.3659C153.22 36.534 153.193 36.7806 153.138 37.1059C153.089 37.4311 153.065 37.6778 153.065 37.8458C153.065 39.3854 154.402 40.1552 157.077 40.1552C158.496 40.1552 159.592 40.0738 160.364 39.9112C160.647 39.8516 160.788 39.7757 160.788 39.6835C160.788 39.5968 160.647 39.5426 160.364 39.5209C159.875 39.483 159.366 39.464 158.839 39.464C158.034 39.464 157.474 39.4125 157.159 39.3095C156.632 39.136 156.368 38.7837 156.368 38.2524C156.368 37.1411 157.167 36.3497 158.766 35.8781C159.793 35.5745 161.03 35.4227 162.476 35.4227H163.496V39.1143Z" fill="#5A3302"/>
<path d="M168.202 39.1143H167.574C166.791 39.1143 166.185 38.7538 165.755 38.0329C165.331 38.7538 164.687 39.1143 163.822 39.1143H163.023V35.4227H163.537C164.118 35.4227 164.523 35.2492 164.752 34.9023C164.806 34.821 164.915 34.5038 165.078 33.9509C165.181 33.604 165.369 33.4305 165.641 33.4305C165.902 33.4305 166.07 33.604 166.146 33.9509C166.266 34.4822 166.356 34.7993 166.416 34.9023C166.622 35.2492 167.008 35.4227 167.574 35.4227H168.202V39.1143ZM167.696 30.1942C167.761 30.2539 167.759 30.3189 167.688 30.3894L166.726 31.3489C166.655 31.4193 166.584 31.4193 166.513 31.3489L165.592 30.4626L164.695 31.3489C164.624 31.4193 164.553 31.4193 164.483 31.3489L163.512 30.4056C163.436 30.3297 163.444 30.2457 163.537 30.1536L164.434 29.251C164.515 29.1697 164.597 29.1697 164.678 29.251L165.592 30.121L166.456 29.251C166.538 29.1697 166.619 29.1697 166.701 29.251L167.696 30.1942Z" fill="#5A3302"/>
<path d="M174.897 39.1143H174.139C172.644 39.1143 171.722 38.6834 171.374 37.8215C171.086 38.3093 170.746 38.6509 170.355 38.846C169.99 39.0249 169.512 39.1143 168.919 39.1143H167.721V35.4227H168.805C169.594 35.4227 170.053 35.3604 170.184 35.2357C169.803 34.7315 169.455 34.371 169.14 34.1542C169.102 34.1325 169.05 34.1054 168.985 34.0729L168.642 33.894C168.555 33.8506 168.512 33.7205 168.512 33.5037C168.512 32.9995 168.77 32.5252 169.286 32.0807C169.874 31.5766 170.605 31.3245 171.48 31.3245C172.111 31.3245 172.674 31.479 173.168 31.788C173.734 32.1403 174.017 32.6174 174.017 33.2191C174.017 33.5715 173.843 33.9645 173.495 34.3981C173.408 34.5066 173.13 34.7993 172.663 35.2763C172.842 35.3739 173.258 35.4227 173.911 35.4227H174.897V39.1143Z" fill="#5A3302"/>
<path d="M179.62 39.1143H178.992C178.209 39.1143 177.602 38.7538 177.173 38.0329C176.749 38.7538 176.104 39.1143 175.24 39.1143H174.441V35.4227H174.955C175.536 35.4227 175.941 35.2492 176.17 34.9023C176.224 34.821 176.333 34.5038 176.496 33.9509C176.599 33.604 176.787 33.4305 177.059 33.4305C177.32 33.4305 177.488 33.604 177.564 33.9509C177.684 34.4822 177.774 34.7993 177.833 34.9023C178.04 35.2492 178.426 35.4227 178.992 35.4227H179.62V39.1143ZM178.143 30.1536C178.214 30.224 178.209 30.2999 178.127 30.3812L177.042 31.4708C176.961 31.5522 176.879 31.5522 176.798 31.4708L175.689 30.3894C175.607 30.3081 175.618 30.2159 175.721 30.1129L176.741 29.0721C176.828 28.9854 176.917 28.9854 177.01 29.0721L178.143 30.1536Z" fill="#5A3302"/>
<path d="M189.618 33.7883C189.618 34.9592 189.208 36.0705 188.387 37.1222C187.37 38.4232 186.011 39.0737 184.309 39.0737C183.798 39.0737 183.268 38.9897 182.719 38.8216C182.093 38.6319 181.645 38.3825 181.373 38.0735C180.933 38.7674 180.422 39.1143 179.84 39.1143H179.138V35.4227H179.742C180.09 35.4227 180.351 35.2601 180.525 34.9348C180.563 34.8643 180.669 34.5581 180.843 34.016C180.946 33.6907 181.088 33.5281 181.267 33.5281C181.479 33.5281 181.672 33.8317 181.846 34.4388C182.025 35.0459 182.243 35.3495 182.498 35.3495C182.542 35.3495 182.833 35.0243 183.371 34.3737C184.013 33.5986 184.605 32.9968 185.149 32.5686C185.975 31.9181 186.748 31.5928 187.465 31.5928C188.15 31.5928 188.694 31.8395 189.096 32.3328C189.444 32.761 189.618 33.2462 189.618 33.7883ZM187.506 34.9917C187.506 34.3683 187.134 34.0566 186.389 34.0566C185.66 34.0566 184.722 34.6204 183.575 35.748C183.825 35.7588 184.07 35.7642 184.309 35.7642C185.293 35.7642 186.095 35.6721 186.715 35.4877C187.242 35.3305 187.506 35.1652 187.506 34.9917Z" fill="#5A3302"/>
<path d="M200 35.1869C200 36.3036 199.737 37.2143 199.209 37.919C198.617 38.7051 197.779 39.0981 196.697 39.0981C194.773 39.0981 193.81 38.2063 193.81 36.4229C193.81 35.7723 194.011 34.8264 194.414 33.585C194.887 32.1214 195.371 31.3895 195.866 31.3895C196.73 31.3895 197.584 31.6877 198.426 32.284C199.476 33.0266 200 33.9943 200 35.1869ZM198.361 35.4064C198.361 35.1896 198.054 34.9484 197.44 34.6827C196.88 34.4388 196.458 34.3168 196.175 34.3168C196.012 34.3168 195.876 34.428 195.768 34.6502C195.681 34.8345 195.637 35.0215 195.637 35.2113C195.637 35.6775 196.129 35.9106 197.113 35.9106C197.945 35.9106 198.361 35.7425 198.361 35.4064Z" fill="#5A3302"/>
<path d="M205.261 39.1062H204.38C202.341 39.1062 201.322 38.0437 201.322 35.9187C201.322 35.0134 201.289 33.8235 201.224 32.349C201.153 30.7932 201.08 29.7633 201.004 29.2591C200.966 29.0098 201.009 28.8309 201.134 28.7224L203.507 27.0555C203.67 26.9417 203.782 26.8848 203.842 26.8848C203.912 26.8848 203.948 26.9498 203.948 27.0799V34.2436C203.948 35.0351 204.298 35.4308 205 35.4308H205.261V39.1062Z" fill="#5A3302"/>
<path d="M212.226 27.2669L212.144 28.0231L205.872 30.0479L206.027 29.1697L212.226 27.2669ZM213.017 39.1143H212.381C211.864 39.1143 211.296 38.9138 210.676 38.5126C210.143 38.1657 209.687 37.7564 209.306 37.2848C208.702 38.5045 207.599 39.1143 205.995 39.1143H204.78V35.4227H205.644C206.4 35.4227 206.93 35.3712 207.234 35.2682C207.376 35.2194 207.447 35.1571 207.447 35.0812C207.447 35.0161 207.403 34.9321 207.316 34.8291C206.848 34.2708 206.215 33.566 205.416 32.7149L205.791 30.674C205.791 30.6414 205.815 30.6008 205.864 30.552L211.973 28.6005C212.038 28.5788 212.076 28.5707 212.087 28.5761C212.098 28.6032 212.101 28.6655 212.095 28.7631L211.932 30.983C211.927 31.0914 211.916 31.1564 211.899 31.1781C211.878 31.2215 211.823 31.2567 211.736 31.2838L208.319 32.3246L210.366 34.7315C210.861 35.1923 211.459 35.4227 212.16 35.4227H213.017V39.1143Z" fill="#5A3302"/>
<path d="M222.575 39.1062H221.947C221.409 39.1062 220.895 38.7538 220.406 38.0491C219.884 38.7538 219.408 39.1062 218.979 39.1062C218.696 39.1062 218.416 38.9897 218.139 38.7566C217.888 38.5506 217.698 38.3039 217.568 38.0166C217.073 38.743 216.619 39.1062 216.206 39.1062C215.586 39.1062 215.102 38.743 214.754 38.0166C214.265 38.7593 213.734 39.1306 213.164 39.1306H212.527V35.4634H213.147C213.555 35.4634 213.841 35.298 214.004 34.9673C214.085 34.68 214.164 34.3927 214.24 34.1054C214.382 33.7368 214.569 33.5525 214.803 33.5525C215.075 33.5525 215.254 33.7178 215.341 34.0485C215.374 34.1732 215.45 34.4795 215.57 34.9673C215.7 35.298 215.95 35.4634 216.32 35.4634C216.635 35.4634 216.853 35.3007 216.972 34.9755C217.01 34.8074 217.086 34.5066 217.201 34.0729C217.288 33.7476 217.467 33.585 217.739 33.585C218.005 33.585 218.177 33.7449 218.253 34.0648C218.291 34.2328 218.356 34.531 218.448 34.9592C218.563 35.279 218.777 35.439 219.093 35.439C219.414 35.439 219.631 35.2818 219.745 34.9673C219.8 34.68 219.865 34.3819 219.941 34.0729C220.017 33.7639 220.202 33.6094 220.495 33.6094C220.74 33.6094 220.909 33.7666 221.001 34.081C221.028 34.1949 221.104 34.4903 221.229 34.9673C221.365 35.2818 221.607 35.439 221.955 35.439H222.575V39.1062ZM215.521 30.3812C215.455 30.3325 215.458 30.2728 215.529 30.2024L216.491 29.251C216.556 29.1859 216.622 29.1859 216.687 29.251L217.633 30.1698L218.579 29.251C218.644 29.1914 218.707 29.1914 218.766 29.251L219.737 30.1942C219.813 30.2647 219.81 30.3406 219.729 30.4219L218.824 31.3326C218.747 31.4085 218.671 31.4085 218.595 31.3326L217.633 30.4219L217.625 30.43L216.744 31.3326C216.668 31.4085 216.589 31.4085 216.507 31.3326L215.521 30.3812ZM216.556 28.5354C216.491 28.4758 216.491 28.4135 216.556 28.3484L217.527 27.3889C217.592 27.3238 217.657 27.3238 217.723 27.3889L218.701 28.3403C218.766 28.4053 218.756 28.4839 218.669 28.5761L217.788 29.4787C217.712 29.56 217.63 29.56 217.543 29.4787L216.556 28.5354Z" fill="#5A3302"/>
<path d="M226.147 34.8454C226.147 36.3524 225.933 37.4149 225.503 38.0329C225.003 38.7538 224.079 39.1143 222.73 39.1143H222.094V35.4227H223.937C224.258 35.4227 224.418 35.3333 224.418 35.1544C224.418 35.0622 224.372 34.9565 224.28 34.8372C223.943 34.4036 223.508 33.9509 222.975 33.4793C222.893 33.4034 222.893 33.3058 222.975 33.1866L224.492 30.9911C224.573 30.8718 224.633 30.8122 224.671 30.8122C224.72 30.8122 224.788 30.8664 224.875 30.9748C225.723 32.0156 226.147 33.3058 226.147 34.8454ZM225.209 28.1939C225.291 28.2698 225.291 28.3484 225.209 28.4297L224.108 29.5112C224.032 29.5871 223.953 29.5871 223.872 29.5112L222.763 28.446C222.67 28.3592 222.678 28.2617 222.787 28.1532L223.807 27.1206C223.894 27.0284 223.986 27.0284 224.084 27.1206L225.209 28.1939Z" fill="#5A3302"/>
<path d="M230.511 34.8779C230.511 35.3549 230.437 35.9594 230.29 36.6912C230.138 37.461 229.97 38.0437 229.785 38.4394C229.556 38.9165 229.342 39.155 229.14 39.155C228.923 39.155 228.735 38.865 228.578 38.2849C228.355 37.4664 227.882 34.6448 227.159 29.8202L229.622 27.145C229.774 26.9769 229.877 26.8929 229.932 26.8929C229.975 26.8929 230.013 26.9688 230.046 27.1206C230.285 28.1993 230.432 29.4868 230.486 30.983C230.502 31.4383 230.511 32.7366 230.511 34.8779Z" fill="#5A3302"/>
<path d="M238.397 35.1218C238.397 37.7727 237.155 39.0981 234.67 39.0981C232.56 39.0981 231.506 38.1847 231.506 36.3578C231.506 35.6368 231.647 34.9646 231.93 34.3412C232.044 34.0919 232.196 33.9672 232.386 33.9672C232.588 33.9672 232.732 34.1217 232.819 34.4307C232.955 34.9348 233.145 35.2519 233.39 35.382C233.661 35.5284 234.23 35.6016 235.094 35.6016C236.165 35.6016 236.701 35.4715 236.701 35.2113C236.701 35.1029 236.619 34.9646 236.456 34.7966C235.869 34.1894 234.847 33.5037 233.39 32.7393L234.67 30.0235C234.746 29.8663 234.819 29.7877 234.89 29.7877C234.934 29.7877 235.004 29.812 235.102 29.8608C235.695 30.159 236.293 30.6523 236.896 31.3407C237.897 32.4791 238.397 33.7395 238.397 35.1218Z" fill="#5A3302"/>
</svg>
